<svg width="84" height="56" viewBox="0 0 84 56" fill="none" xmlns="http://www.w3.org/2000/svg">
<g id="Logo Shapes 20">
<g id="Group">
<path id="Vector" d="M84 0L56.7836 45.993L55.3306 48.4471L53.6228 51.3404L53.4549 51.3606L45.1872 38.7841L46.6642 36.2737L57.9931 17.1065L84 0Z" fill="url(#paint0_linear_3_39)"/>
<g id="Group_2" style="mix-blend-mode:multiply" opacity="0.16">
<g id="Vector_2" style="mix-blend-mode:multiply" opacity="0.16">
<path d="M56.7836 45.993L53.6228 51.3397L53.4549 51.3599L45.1872 38.7841L46.6634 36.2737C49.2338 38.7241 53.5613 42.8794 56.7836 45.993Z" fill="black"/>
</g>
</g>
<path id="Vector_3" d="M39.0999 29.5316L53.4547 51.3568L38.3408 53.3322L31.3043 42.6335L39.0999 29.5316Z" fill="url(#paint1_linear_3_39)"/>
<g id="Group_3" style="mix-blend-mode:screen" opacity="0.3">
<g id="Vector_4" style="mix-blend-mode:screen" opacity="0.3">
<path d="M83.9993 0L56.783 45.9929L55.33 48.4471C54.7155 49.4213 54.0845 50.3955 53.4565 51.3599C54.642 49.1717 55.8545 46.9956 57.07 44.8202C58.272 42.641 59.4942 40.4726 60.7366 38.315C63.217 33.9979 65.6562 29.6486 68.1808 25.351C70.6784 21.0436 73.224 16.7648 75.7533 12.4762C77.835 9.0051 79.919 5.53305 82.006 2.05999C80.6114 2.96672 79.2191 3.85847 77.8058 4.74197L71.2315 8.90469C69.0433 10.3035 66.8452 11.6796 64.6371 13.0329C62.4309 14.4035 60.2249 15.7741 57.9955 17.1095L83.9993 0Z" fill="white"/>
</g>
</g>
<g id="Group_4" style="mix-blend-mode:screen" opacity="0.3">
<g id="Vector_5" style="mix-blend-mode:screen" opacity="0.3">
<path d="M39.0998 29.5316L52.2953 49.5952C52.4062 49.7937 52.5119 49.9855 52.6161 50.1886C51.9753 49.383 51.3631 48.5588 50.7389 47.7322C50.1267 46.9079 49.495 46.0836 48.9037 45.2481C48.2937 44.4126 47.6957 43.5792 47.0992 42.7339C46.5147 41.8916 45.9167 41.0583 45.3345 40.2041C44.1685 38.5055 43.0195 36.798 41.8874 35.0814C40.9402 33.6726 40.0245 32.2339 39.1058 30.8101C37.9592 32.6585 36.7925 34.4985 35.6055 36.3299C34.9071 37.3933 34.2199 38.4588 33.4885 39.5026C32.7692 40.5518 32.0588 41.6099 31.3064 42.6372L39.0998 29.5316Z" fill="white"/>
</g>
</g>
<g id="Group_5" style="mix-blend-mode:screen" opacity="0.15">
<g id="Vector_6" style="mix-blend-mode:screen" opacity="0.15">
<path d="M59.4049 18.0724L77.6551 6.44608L56.9268 41.8272L59.4049 18.0724Z" fill="white"/>
</g>
</g>
<g id="Group_6" style="mix-blend-mode:screen" opacity="0.15">
<g id="Vector_7" style="mix-blend-mode:screen" opacity="0.15">
<path d="M32.7137 42.6673L39.1807 33.3857L50.4122 49.506L32.7137 42.6673Z" fill="white"/>
</g>
</g>
<path id="Vector_8" d="M0 55.4349L27.2161 9.44492L28.6692 6.99077L30.377 4.09748L30.5448 4.07724L38.814 16.6501L37.337 19.1597L26.0029 38.3246L0 55.4349Z" fill="url(#paint2_linear_3_39)"/>
<g id="Group_7" style="mix-blend-mode:multiply" opacity="0.16">
<g id="Vector_9" style="mix-blend-mode:multiply" opacity="0.16">
<path d="M27.2134 9.442L30.3743 4.09455L30.5421 4.07431L38.8113 16.6471L37.3343 19.1575C34.7655 16.7033 30.4357 12.5519 27.2134 9.442Z" fill="black"/>
</g>
</g>
<path id="Vector_10" d="M44.8964 25.8995L30.5416 4.07433L45.6548 2.099L52.6914 12.7976L44.8964 25.8995Z" fill="url(#paint3_linear_3_39)"/>
<g id="Group_8" style="mix-blend-mode:multiply" opacity="0.16">
<g id="Vector_11" style="mix-blend-mode:multiply" opacity="0.16">
<path d="M0 55.435L27.2161 9.44582L28.6692 6.99168C29.2836 6.01751 29.9138 5.04334 30.5426 4.07816C29.3563 6.2663 28.1446 8.44242 26.9291 10.6186C25.7271 12.7973 24.5049 14.9654 23.2625 17.123C20.7821 21.4401 18.3429 25.7894 15.8176 30.087C13.3207 34.3944 10.7751 38.6733 8.24524 42.9619C6.16351 46.4329 4.07954 49.905 1.99331 53.378C3.38788 52.4713 4.78018 51.5795 6.19348 50.6968L12.7677 46.5333C14.9553 45.1346 17.1535 43.7584 19.3621 42.4051C21.5682 41.0345 23.7743 39.6639 26.0037 38.3285L0 55.435Z" fill="black"/>
</g>
</g>
<g id="Group_9" style="mix-blend-mode:multiply" opacity="0.3">
<g id="Vector_12" style="mix-blend-mode:multiply" opacity="0.3">
<path d="M44.8967 25.8996L31.6982 5.83611C31.588 5.63753 31.4816 5.44569 31.3782 5.24261C32.0189 6.04818 32.6311 6.8725 33.2516 7.69904C33.8638 8.52334 34.4948 9.34764 35.0868 10.1832C35.6968 11.0187 36.2947 11.852 36.8912 12.6965C37.4749 13.5396 38.0737 14.3729 38.6552 15.2271C39.8222 16.9257 40.9712 18.6332 42.1023 20.3498C43.0495 21.7586 43.9652 23.1974 44.884 24.6212C46.0305 22.7727 47.1969 20.9328 48.3834 19.1014C49.0826 18.038 49.7698 16.9724 50.5004 15.9285C51.2311 14.8847 51.931 13.8213 52.6826 12.794L44.8967 25.8996Z" fill="black"/>
</g>
</g>
<g id="Group_10" style="mix-blend-mode:screen" opacity="0.3">
<g id="Vector_13" style="mix-blend-mode:screen" opacity="0.3">
<path d="M24.5911 37.3588L6.3418 48.9852L27.0692 13.604C27.0692 13.604 27.0595 14.0483 24.5911 37.3588Z" fill="white"/>
</g>
</g>
<g id="Group_11" style="mix-blend-mode:screen" opacity="0.2">
<g id="Vector_14" style="mix-blend-mode:screen" opacity="0.2">
<path d="M51.2816 12.7639L44.8116 22.0455L33.5801 5.9252L51.2816 12.7639Z" fill="white"/>
</g>
</g>
</g>
</g>
<defs>
<linearGradient id="paint0_linear_3_39" x1="129.178" y1="269.438" x2="182.933" y2="269.438" gradientUnits="userSpaceOnUse">
<stop stop-color="#233B55"/>
<stop offset="1" stop-color="#131D32"/>
</linearGradient>
<linearGradient id="paint1_linear_3_39" x1="122.32" y1="256.827" x2="122.32" y2="280.413" gradientUnits="userSpaceOnUse">
<stop stop-color="#233B55"/>
<stop offset="1" stop-color="#131D32"/>
</linearGradient>
<linearGradient id="paint2_linear_3_39" x1="-987.897" y1="226.405" x2="-934.137" y2="226.405" gradientUnits="userSpaceOnUse">
<stop stop-color="#F80300"/>
<stop offset="0.033" stop-color="#F81000"/>
<stop offset="0.158" stop-color="#F93F00"/>
<stop offset="0.288" stop-color="#FA6800"/>
<stop offset="0.419" stop-color="#FA8900"/>
<stop offset="0.554" stop-color="#FBA300"/>
<stop offset="0.693" stop-color="#FBB500"/>
<stop offset="0.838" stop-color="#FBC000"/>
<stop offset="1" stop-color="#FCC400"/>
</linearGradient>
<linearGradient id="paint3_linear_3_39" x1="-994.746" y1="213.805" x2="-994.746" y2="237.391" gradientUnits="userSpaceOnUse">
<stop stop-color="#F80300"/>
<stop offset="0.033" stop-color="#F81000"/>
<stop offset="0.158" stop-color="#F93F00"/>
<stop offset="0.288" stop-color="#FA6800"/>
<stop offset="0.419" stop-color="#FA8900"/>
<stop offset="0.554" stop-color="#FBA300"/>
<stop offset="0.693" stop-color="#FBB500"/>
<stop offset="0.838" stop-color="#FBC000"/>
<stop offset="1" stop-color="#FCC400"/>
</linearGradient>
</defs>
</svg>
